<?xml version="1.0" standalone="no"?>
<!DOCTYPE svg PUBLIC "-//W3C//DTD SVG 20010904//EN"
 "http://www.w3.org/TR/2001/REC-SVG-20010904/DTD/svg10.dtd">
<svg version="1.0" xmlns="http://www.w3.org/2000/svg"
 width="579.000000pt" height="579.000000pt" viewBox="0 0 579.000000 579.000000"
 preserveAspectRatio="xMidYMid meet">
<metadata>
Created by potrace 1.14, written by Peter Selinger 2001-2017
</metadata>
<g transform="translate(0.000000,579.000000) scale(0.100000,-0.100000)"
fill="#000000" stroke="none">
<path d="M2715 5764 c-497 -39 -926 -173 -1325 -416 -151 -92 -150 -91 -174
-110 -11 -9 -67 -53 -122 -97 -564 -443 -939 -1087 -1056 -1815 -20 -123 -23
-177 -23 -431 0 -301 8 -387 56 -605 139 -640 500 -1224 1009 -1633 397 -320
897 -537 1415 -614 170 -25 620 -25 790 0 475 71 917 249 1296 523 290 208
580 518 764 814 392 633 522 1364 374 2099 -86 427 -300 875 -586 1228 -43 53
-130 149 -193 212 -451 452 -1042 741 -1686 826 -117 15 -440 27 -539 19z
m-742 -700 c20 -19 37 -39 37 -45 0 -5 8 -9 18 -9 31 0 48 -30 71 -124 30
-120 28 -116 228 -484 121 -222 179 -319 184 -310 5 7 6 25 3 41 -5 25 18 107
38 133 5 7 36 14 69 16 99 7 101 17 28 138 -162 273 -207 484 -97 457 56 -14
199 -164 286 -300 30 -46 41 -56 57 -52 75 23 112 26 235 20 164 -9 292 5 439
47 58 16 134 32 168 35 l61 6 50 -47 c42 -39 59 -68 106 -175 38 -85 71 -144
101 -178 39 -44 44 -55 36 -76 -12 -30 -72 -60 -123 -60 -67 0 -97 21 -149
101 -27 41 -49 81 -49 88 0 15 -26 19 -34 5 -3 -5 -18 -12 -33 -16 -29 -7
-163 -92 -227 -144 -22 -17 -58 -57 -81 -89 -23 -31 -54 -63 -68 -71 -15 -8
-27 -19 -27 -25 0 -6 30 -72 67 -146 82 -166 121 -262 129 -312 6 -33 4 -38
-13 -38 -10 0 -40 13 -66 30 -26 17 -54 30 -61 30 -13 0 -51 37 -57 56 -6 16
-188 208 -193 203 -2 -2 -14 -73 -26 -157 l-21 -154 36 -44 c20 -24 107 -115
194 -202 168 -168 257 -283 390 -506 l71 -119 -352 6 c-194 4 -507 7 -695 7
l-343 0 9 23 c5 12 12 101 16 198 6 164 5 179 -13 215 -55 108 -74 272 -52
449 11 93 11 107 -2 123 -26 28 -155 271 -193 361 -66 156 -106 329 -120 521
-6 77 -14 111 -44 180 l-36 85 -6 -110 -5 -110 -2 115 c-3 130 -15 176 -60
223 -32 33 -40 61 -22 72 6 4 8 21 4 39 -6 34 13 66 41 66 7 0 20 11 29 25 9
14 20 25 24 25 4 0 24 -16 45 -36z m-46 -756 c-2 -35 -3 -9 -3 57 0 66 1 94 3
63 2 -32 2 -86 0 -120z m10 -300 c-2 -35 -3 -9 -3 57 0 66 1 94 3 63 2 -32 2
-86 0 -120z m10 -300 c-2 -35 -3 -9 -3 57 0 66 1 94 3 63 2 -32 2 -86 0 -120z
m10 -240 c-2 -24 -4 -7 -4 37 0 44 2 63 4 43 2 -21 2 -57 0 -80z m110 -80 c5
-7 31 -72 56 -144 l47 -132 0 -216 0 -216 -240 0 -240 0 0 210 0 209 46 136
c26 75 53 143 61 151 19 19 256 20 270 2z m-464 -785 c-9 -3 -14 -34 -15 -96
l-2 -92 -3 84 c-4 91 -1 111 19 110 10 0 10 -2 1 -6z m2428 -20 c0 -10 0 -40
-1 -67 -1 -28 3 -52 10 -56 8 -5 7 -9 -4 -13 -14 -6 -16 4 -16 68 l0 74 -87 4
-88 3 93 2 c81 2 92 0 93 -15z m217 10 c-15 -2 -42 -2 -60 0 -18 2 -6 4 27 4
33 0 48 -2 33 -4z m-121 -9 c-3 -3 -12 -4 -19 -1 -8 3 -5 6 6 6 11 1 17 -2 13
-5z m231 -10 c40 -16 87 -57 104 -89 6 -11 -7 -1 -28 23 -27 31 -55 49 -94 62
-30 11 -47 19 -37 20 10 0 34 -7 55 -16z m-275 -1 c-7 -2 -19 -2 -25 0 -7 3
-2 5 12 5 14 0 19 -2 13 -5z m164 -90 c-20 -2 -52 -2 -70 0 -17 2 0 4 38 4 39
0 53 -2 32 -4z m-120 -9 c-3 -3 -12 -4 -19 -1 -8 3 -5 6 6 6 11 1 17 -2 13 -5z
m219 -28 c19 -19 34 -42 34 -52 -1 -12 -6 -7 -15 13 -8 18 -29 42 -47 53 -18
11 -27 20 -19 20 7 0 28 -15 47 -34z m-259 18 c-3 -3 -12 -4 -19 -1 -8 3 -5 6
6 6 11 1 17 -2 13 -5z m400 -81 c-3 -10 -5 -2 -5 17 0 19 2 27 5 18 2 -10 2
-26 0 -35z m-470 0 c-3 -10 -5 -4 -5 12 0 17 2 24 5 18 2 -7 2 -21 0 -30z
m-2420 -30 c-3 -10 -5 -2 -5 17 0 19 2 27 5 18 2 -10 2 -26 0 -35z m2890 -40
c-3 -10 -5 -2 -5 17 0 19 2 27 5 18 2 -10 2 -26 0 -35z m-480 5 c-3 -7 -5 -2
-5 12 0 14 2 19 5 13 2 -7 2 -19 0 -25z m-2400 -20 c-3 -7 -5 -2 -5 12 0 14 2
19 5 13 2 -7 2 -19 0 -25z m2770 10 c-3 -8 -6 -5 -6 6 -1 11 2 17 5 13 3 -3 4
-12 1 -19z m-380 -40 c-3 -8 -6 -5 -6 6 -1 11 2 17 5 13 3 -3 4 -12 1 -19z
m480 0 c-3 -8 -6 -5 -6 6 -1 11 2 17 5 13 3 -3 4 -12 1 -19z m-2860 -10 c-3
-8 -6 -5 -6 6 -1 11 2 17 5 13 3 -3 4 -12 1 -19z m2370 -30 c-3 -8 -6 -5 -6 6
-1 11 2 17 5 13 3 -3 4 -12 1 -19z m-2360 -10 c-3 -8 -6 -5 -6 6 -1 11 2 17 5
13 3 -3 4 -12 1 -19z m2703 -28 c-6 -11 -13 -20 -16 -20 -2 0 0 9 6 20 6 11
13 20 16 20 2 0 0 -9 -6 -20z m100 -39 c-28 -56 -35 -52 -8 4 12 24 23 43 26
41 2 -2 -6 -22 -18 -45z m-470 -8 c-11 -17 -11 -17 -6 0 3 10 6 24 7 30 0 9 2
9 5 0 3 -7 0 -20 -6 -30z m-2301 -18 c0 -5 -4 -3 -9 5 -5 8 -9 22 -9 30 0 16
17 -16 18 -35z m2631 1 c0 -2 -8 -10 -17 -17 -16 -13 -17 -12 -4 4 13 16 21
21 21 13z m-2610 -51 c0 -5 -5 -3 -10 5 -5 8 -10 20 -10 25 0 6 5 3 10 -5 5
-8 10 -19 10 -25z m2246 -22 c-8 -15 -15 -25 -16 -21 0 12 23 58 27 54 3 -2
-2 -17 -11 -33z m334 34 c0 -2 -15 -16 -32 -33 l-33 -29 29 33 c28 30 36 37
36 29z m-2541 -94 c17 -35 29 -63 26 -63 -5 0 -65 116 -65 126 0 12 6 2 39
-63z m2641 44 c0 -2 -10 -12 -22 -23 l-23 -19 19 23 c18 21 26 27 26 19z
m-160 -20 c0 -2 -15 -16 -32 -33 l-33 -29 29 33 c28 30 36 37 36 29z m120 -30
c0 -2 -15 -16 -32 -33 l-33 -29 29 33 c28 30 36 37 36 29z m-454 -54 c-8 -16
-22 -37 -31 -48 -16 -19 -17 -19 -3 5 8 14 20 35 27 48 6 12 14 22 17 22 2 0
-2 -12 -10 -27z m264 24 c0 -2 -15 -16 -32 -33 l-33 -29 29 33 c28 30 36 37
36 29z m-2314 -122 c27 -38 82 -106 123 -150 70 -74 71 -76 12 -20 -60 58
-149 167 -187 230 -28 47 -2 17 52 -60z m2244 62 c0 -2 -10 -12 -22 -23 l-23
-19 19 23 c18 21 26 27 26 19z m160 -10 c0 -2 -19 -21 -42 -42 l-43 -40 40 43
c36 39 45 47 45 39z m-420 -57 c-12 -16 -24 -30 -26 -30 -3 0 4 14 16 30 12
17 24 30 26 30 3 0 -4 -13 -16 -30z m180 6 c0 -2 -8 -10 -17 -17 -16 -13 -17
-12 -4 4 13 16 21 21 21 13z m-40 -31 c0 -2 -10 -9 -22 -15 -22 -11 -22 -10
-4 4 21 17 26 19 26 11z m156 -29 c-21 -18 -53 -41 -70 -50 -30 -16 -30 -16
-7 1 14 10 43 32 65 50 54 42 62 41 12 -1z m-326 11 c0 -2 -12 -14 -27 -28
l-28 -24 24 28 c23 25 31 32 31 24z m120 -12 c0 -2 -10 -9 -22 -15 -22 -11
-22 -10 -4 4 21 17 26 19 26 11z m-185 -65 c-14 -15 -15 -20 -4 -21 8 0 2 -6
-13 -12 -14 -7 -37 -21 -50 -32 -12 -11 -1 4 27 33 47 49 79 75 40 32z m-95
-83 c0 -2 -12 -14 -27 -28 l-28 -24 24 28 c23 25 31 32 31 24z m-1565 -37 c10
-11 16 -20 13 -20 -3 0 -13 9 -23 20 -10 11 -16 20 -13 20 3 0 13 -9 23 -20z
m1495 -25 c-10 -12 -10 -15 1 -15 32 0 -10 -18 -56 -24 -31 -4 -45 -2 -36 3
11 7 9 10 -10 14 -13 2 -1 5 27 6 32 0 56 7 64 16 7 8 15 15 17 15 3 0 0 -7
-7 -15z m-1400 -25 c14 0 32 -5 40 -11 12 -8 10 -9 -10 -5 -14 3 -65 7 -115 8
-70 1 -77 3 -32 5 47 3 58 7 53 19 -5 13 -3 13 16 -1 13 -8 34 -15 48 -15z
m1530 10 c0 -6 34 -11 78 -12 52 -1 63 -3 32 -6 -25 -2 -74 0 -110 4 -51 6
-60 9 -40 15 36 10 40 10 40 -1z m-1822 -27 c-16 -2 -40 -2 -55 0 -16 2 -3 4
27 4 30 0 43 -2 28 -4z m2140 0 c-16 -2 -40 -2 -55 0 -16 2 -3 4 27 4 30 0 43
-2 28 -4z m-2330 -10 c-10 -2 -28 -2 -40 0 -13 2 -5 4 17 4 22 1 32 -1 23 -4z
m579 1 c-3 -3 -12 -4 -19 -1 -8 3 -5 6 6 6 11 1 17 -2 13 -5z m1180 0 c-3 -3
-12 -4 -19 -1 -8 3 -5 6 6 6 11 1 17 -2 13 -5z m751 -1 c-10 -2 -28 -2 -40 0
-13 2 -5 4 17 4 22 1 32 -1 23 -4z m-2650 -10 c-10 -2 -26 -2 -35 0 -10 3 -2
5 17 5 19 0 27 -2 18 -5z m1849 1 c-3 -3 -12 -4 -19 -1 -8 3 -5 6 6 6 11 1 17
-2 13 -5z m931 -1 c-10 -2 -28 -2 -40 0 -13 2 -5 4 17 4 22 1 32 -1 23 -4z
m-2895 -10 c-7 -2 -21 -2 -30 0 -10 3 -4 5 12 5 17 0 24 -2 18 -5z m924 1 c-3
-3 -12 -4 -19 -1 -8 3 -5 6 6 6 11 1 17 -2 13 -5z m990 0 c-3 -3 -12 -4 -19
-1 -8 3 -5 6 6 6 11 1 17 -2 13 -5z m1096 -1 c-7 -2 -21 -2 -30 0 -10 3 -4 5
12 5 17 0 24 -2 18 -5z m-3100 -10 c-7 -2 -19 -2 -25 0 -7 3 -2 5 12 5 14 0
19 -2 13 -5z m1064 1 c-3 -3 -12 -4 -19 -1 -8 3 -5 6 6 6 11 1 17 -2 13 -5z
m890 0 c-3 -3 -12 -4 -19 -1 -8 3 -5 6 6 6 11 1 17 -2 13 -5z m1236 -1 c-7 -2
-21 -2 -30 0 -10 3 -4 5 12 5 17 0 24 -2 18 -5z m-3280 -10 c-7 -2 -19 -2 -25
0 -7 3 -2 5 12 5 14 0 19 -2 13 -5z m1984 1 c-3 -3 -12 -4 -19 -1 -8 3 -5 6 6
6 11 1 17 -2 13 -5z m1376 -1 c-7 -2 -19 -2 -25 0 -7 3 -2 5 12 5 14 0 19 -2
13 -5z m-3416 -9 c-3 -3 -12 -4 -19 -1 -8 3 -5 6 6 6 11 1 17 -2 13 -5z m1300
0 c-3 -3 -12 -4 -19 -1 -8 3 -5 6 6 6 11 1 17 -2 13 -5z m690 0 c-3 -3 -12 -4
-19 -1 -8 3 -5 6 6 6 11 1 17 -2 13 -5z m1490 0 c-3 -3 -12 -4 -19 -1 -8 3 -5
6 6 6 11 1 17 -2 13 -5z m-3540 -10 c-3 -3 -12 -4 -19 -1 -8 3 -5 6 6 6 11 1
17 -2 13 -5z m1416 -1 c-7 -2 -19 -2 -25 0 -7 3 -2 5 12 5 14 0 19 -2 13 -5z
m580 0 c-7 -2 -19 -2 -25 0 -7 3 -2 5 12 5 14 0 19 -2 13 -5z m1594 1 c-3 -3
-12 -4 -19 -1 -8 3 -5 6 6 6 11 1 17 -2 13 -5z m-3630 -10 c-3 -3 -12 -4 -19
-1 -8 3 -5 6 6 6 11 1 17 -2 13 -5z m1526 -1 c-7 -2 -19 -2 -25 0 -7 3 -2 5
12 5 14 0 19 -2 13 -5z m440 0 c-7 -2 -19 -2 -25 0 -7 3 -2 5 12 5 14 0 19 -2
13 -5z m-360 -10 c-7 -2 -21 -2 -30 0 -10 3 -4 5 12 5 17 0 24 -2 18 -5z m280
0 c-7 -2 -21 -2 -30 0 -10 3 -4 5 12 5 17 0 24 -2 18 -5z m1833 -7 c19 -15 19
-15 0 -33 -18 -16 -19 -17 -7 0 15 19 15 19 -14 35 -11 6 -15 12 -9 12 5 0 19
-6 30 -14z m-1958 -3 c-15 -2 -42 -2 -60 0 -18 2 -6 4 27 4 33 0 48 -2 33 -4z
m-1814 -42 c-5 -6 -34 20 -34 30 0 5 8 1 18 -8 10 -10 17 -20 16 -22z m113
-27 c-3 -3 -12 -4 -19 -1 -8 3 -5 6 6 6 11 1 17 -2 13 -5z m3550 0 c-3 -3 -12
-4 -19 -1 -8 3 -5 6 6 6 11 1 17 -2 13 -5z m-3490 -10 c-3 -3 -12 -4 -19 -1
-8 3 -5 6 6 6 11 1 17 -2 13 -5z m3430 0 c-3 -3 -12 -4 -19 -1 -8 3 -5 6 6 6
11 1 17 -2 13 -5z m-3354 -11 c-7 -2 -19 -2 -25 0 -7 3 -2 5 12 5 14 0 19 -2
13 -5z m3280 0 c-7 -2 -19 -2 -25 0 -7 3 -2 5 12 5 14 0 19 -2 13 -5z m-3190
-10 c-7 -2 -19 -2 -25 0 -7 3 -2 5 12 5 14 0 19 -2 13 -5z m3100 0 c-7 -2 -19
-2 -25 0 -7 3 -2 5 12 5 14 0 19 -2 13 -5z m-2995 -10 c-10 -2 -26 -2 -35 0
-10 3 -2 5 17 5 19 0 27 -2 18 -5z m2910 0 c-10 -2 -28 -2 -40 0 -13 2 -5 4
17 4 22 1 32 -1 23 -4z m-2780 -10 c-10 -2 -26 -2 -35 0 -10 3 -2 5 17 5 19 0
27 -2 18 -5z m2640 0 c-10 -2 -26 -2 -35 0 -10 3 -2 5 17 5 19 0 27 -2 18 -5z
m-2485 -10 c-13 -2 -35 -2 -50 0 -16 2 -5 4 22 4 28 0 40 -2 28 -4z m2350 0
c-13 -2 -35 -2 -50 0 -16 2 -5 4 22 4 28 0 40 -2 28 -4z m-2150 -10 c-13 -2
-35 -2 -50 0 -16 2 -5 4 22 4 28 0 40 -2 28 -4z m1955 0 c-16 -2 -40 -2 -55 0
-16 2 -3 4 27 4 30 0 43 -2 28 -4z m-1670 -10 c-21 -2 -57 -2 -80 0 -24 2 -7
4 37 4 44 0 63 -2 43 -4z m1410 0 c-21 -2 -57 -2 -80 0 -24 2 -7 4 37 4 44 0
63 -2 43 -4z m-571 -10 c-98 -2 -256 -2 -350 0 -95 1 -14 3 178 2 193 0 270
-1 172 -2z"/>
</g>
</svg>
